{"title":"Linsey.Dawn.McKenzie.Encore.D2.Extras.DVDRip.x264.Iou1","uid":8446187,"size":2099504500,"categoryP":"porn","categoryS":"movies","magnet":"?xt=urn:btih:df27f8a99a259516fbf5eeb29566fd684656bbf7&amp;dn=Linsey.Dawn.McKenzie.Encore.D2.Extras.DVDRip.x264.Iou1&amp;tr=udp%3A%2F%2Ftracker.openbittorrent.com%3A80&amp;tr=udp%3A%2F%2Fopen.demonii.com%3A1337&amp;tr=udp%3A%2F%2Ftracker.coppersurfer.tk%3A6969&amp;tr=udp%3A%2F%2Fexodus.desync.com%3A6969","seeders":0,"leechers":0,"uploader":"jaybee211","files":-1,"time":1367891960,"description":"Format                                   : MPEG-4\nFormat profile                           : Base Media / Version 2\nCodec ID                                 : mp42\nFile size                                : 1.96 GiB\nDuration                                 : 4h 6mn\nOverall bit rate mode                    : Variable\nOverall bit rate                         : 1 137 Kbps\n\nVideo\nID                                       : 1\nFormat                                   : AVC\nFormat/Info                              : Advanced Video Codec\nFormat profile                           : &lt;a class=&quot;__cf_email__&quot; href=&quot;/cdn-cgi/l/email-protection&quot; data-cfemail=&quot;d199b8b6b9919de2ffe0&quot;&gt;[email&amp;#160;protected]&lt;/a&gt;&lt;script data-cfhash='f9e31' type=&quot;text/javascript&quot;&gt;\n/* &lt;![CDATA[ */!function(){try{var t=&quot;currentScript&quot;in document?document.currentScript:function(){for(var t=document.getElementsByTagName(&quot;script&quot;),e=t.length;e--;)if(t[e].getAttribute(&quot;data-cfhash&quot;))return t[e]}();if(t&amp;&amp;t.previousSibling){var e,r,n,i,c=t.previousSibling,a=c.getAttribute(&quot;data-cfemail&quot;);if(a){for(e=&quot;&quot;,r=parseInt(a.substr(0,2),16),n=2;a.length-n;n+=2)i=parseInt(a.substr(n,2),16)^r,e+=String.fromCharCode(i);e=document.createTextNode(e),c.parentNode.replaceChild(e,c)}t.parentNode.removeChild(t);}}catch(u){}}()/* ]]&gt; */&lt;/script&gt;\nFormat settings, CABAC                   : Yes\nFormat settings, ReFrames                : 4 frames\nCodec ID                                 : avc1\nCodec ID/Info                            : Advanced Video Coding\nDuration                                 : 4h 6mn\nBit rate mode                            : Variable\nBit rate                                 : 1 055 Kbps\nMaximum bit rate                         : 6 230 Kbps\nWidth                                    : 720 pixels\nHeight                                   : 540 pixels\nDisplay aspect ratio                     : 4:3\nFrame rate mode                          : Constant\nFrame rate                               : 29.970 fps\nColor space                              : YUV\nChroma subsampling                       : 4:2:0\nBit depth                                : 8 bits\nScan type                                : Progressive\nBits/(Pixel*Frame)                       : 0.091\nStream size                              : 1.81 GiB (93%)\nLanguage                                 : English\n\nAudio\nID                                       : 2\nFormat                                   : AAC\nFormat/Info                              : Advanced Audio Codec\nFormat profile                           : LC\nCodec ID                                 : 40\nDuration                                 : 4h 6mn\nBit rate mode                            : Variable\nBit rate                                 : 77.9 Kbps\nMaximum bit rate                         : 93.9 Kbps\nChannel(s)                               : 2 channels\nChannel positions                        : Front: L R\nSampling rate                            : 48.0 KHz\nCompression mode                         : Lossy\nDelay relative to video                  : 33ms\nStream size                              : 137 MiB (7%)\nTitle                                    : und\n\nScreens. &lt;a href=&quot; http://bayimg.com/bAMJGaaeJ&quot; rel=&quot;nofollow&quot; target=&quot;_NEW&quot;&gt; http://bayimg.com/bAMJGaaeJ&lt;/a&gt;\n\n         &lt;a href=&quot; http://bayimg.com/bamjHaaEj&quot; rel=&quot;nofollow&quot; target=&quot;_NEW&quot;&gt; http://bayimg.com/bamjHaaEj&lt;/a&gt;  \n\nEnjoy.","torrent":{"xt":"urn:btih:df27f8a99a259516fbf5eeb29566fd684656bbf7","amp;dn":"Linsey.Dawn.McKenzie.Encore.D2.Extras.DVDRip.x264.Iou1","amp;tr":["udp%3A%2F%2Ftracker.openbittorrent.com%3A80","udp%3A%2F%2Fopen.demonii.com%3A1337","udp%3A%2F%2Ftracker.coppersurfer.tk%3A6969","udp%3A%2F%2Fexodus.desync.com%3A6969"],"infoHash":"df27f8a99a259516fbf5eeb29566fd684656bbf7","infoHashBuffer":{"type":"Buffer","data":[223,39,248,169,154,37,149,22,251,245,238,178,149,102,253,104,70,86,187,247]},"announce":[],"urlList":[]}}